<?xml version="1.0" encoding="iso-8859-1"?>
<!-- Generator: Adobe Illustrator 19.0.0, SVG Export Plug-In . SVG Version: 6.00 Build 0)  -->
<svg version="1.1" id="Layer_1" xmlns="http://www.w3.org/2000/svg" xmlns:xlink="http://www.w3.org/1999/xlink" x="0px" y="0px"
	 viewBox="0 0 496.164 496.164" style="enable-background:new 0 0 496.164 496.164;" xml:space="preserve">
<path style="fill:#FFEEAD;" d="M248.079,0C111.071,0,0.001,111.059,0.001,248.08c0,137.013,111.07,248.084,248.078,248.084
	c137.012,0,248.084-111.071,248.084-248.084C496.163,111.059,385.091,0,248.079,0z"/>
<g>
	<path style="fill:#51808E;" d="M343.833,184.561c-33.598-33.593-88.072-33.593-121.668,0c-33.598,33.609-33.598,88.08,0,121.675
		c33.596,33.6,88.07,33.6,121.668,0C377.435,272.641,377.435,218.17,343.833,184.561z M320.706,283.116
		c-20.824,20.816-54.588,20.816-75.418,0c-20.822-20.832-20.822-54.595,0-75.419c20.83-20.832,54.594-20.832,75.418,0
		C341.534,228.521,341.534,262.284,320.706,283.116z"/>
	<path style="fill:#51808E;" d="M417.315,203.802c-0.207-10.313-1.033-43.478-1.242-53.798c-0.193-10.044,1.166-20.978-2.518-30.418
		c-0.139-0.528-0.332-1.079-0.613-1.631c-0.748-1.483-2.584-2.845-4.369-3.243c-8.695-3.29-18.336-2.196-27.641-2.387
		c-11.555-0.229-45.816-0.513-57.371-0.742c-13.369-0.275-13.828,16.893-4.086,22.613c4.877,2.832,35.41,2.579,40.832,3.13
		c3.467,0.359,6.953,0.689,10.434,1.025c-7.555,7.559-26.416,26.425-33.973,33.977c-7.938,7.941-28.766,22.217-16.113,34.878
		c12.697,12.686,27.07-8.293,35.023-16.242c7.602-7.604,26.52-26.517,34.129-34.128c0.705,7.956,2.094,38.765,3.258,46.637
		c1.855,12.517,17.359,17.191,23.068,6.167c0.59-0.78,0.969-1.768,1.125-2.923C417.519,205.661,417.522,204.675,417.315,203.802z"/>
</g>
<path style="fill:#41747F;" d="M408.573,114.712c-8.695-3.29-18.336-2.196-27.641-2.387c-11.555-0.229-45.816-0.513-57.371-0.742
	c-13.369-0.275-13.828,16.893-4.086,22.613c4.877,2.832,35.41,2.579,40.832,3.13c3.467,0.359,6.953,0.689,10.434,1.025
	c-7.555,7.559-26.416,26.425-33.973,33.977c-1.008,1.017-2.229,2.126-3.563,3.327c-33.623-24.259-80.779-21.359-111.041,8.905
	c-33.566,33.578-33.592,87.974-0.088,121.582l23.129-23.127c-20.734-20.833-20.709-54.525,0.082-75.319
	c20.799-20.802,54.49-20.825,75.322-0.092l91.15-91.141l0.012-0.022C410.884,115.616,409.718,114.963,408.573,114.712z"/>
<g>
	<path style="fill:#EFA192;" d="M157.479,345.039c-2.969-2.97-14.383-14.659-14.182-14.451c0.043-0.047,21.875-21.598,21.875-21.598
		s12.299-10.864,16.957-21.3c0.377-0.842-14.324-14.443-14.324-14.443c-10.52,4.651-21.539,17.105-21.539,17.105
		c-7.219,7.215-21.736,21.461-21.736,21.461c-5.416-5.418-10.51-10.513-13.646-13.649c-7.936-7.933-16.498-23.043-29.154-10.39
		c-12.688,12.693,2.566,21.346,10.52,29.295c2.973,2.976,13.377,13.647,13.377,13.647c-5.551,5.547-1.58,1.576-4.777,4.783
		c-7.936,7.932-28.678,22.108-16.023,34.763c12.697,12.699,26.979-8.178,34.928-16.136c3.18-3.175-0.852,0.851,4.637-4.637
		c5.721,5.731,11.166,11.171,14.463,14.469c7.932,7.934,16.49,23.043,29.15,10.382C180.688,361.656,165.433,352.996,157.479,345.039
		z"/>
	<path style="fill:#EFA192;" d="M275.083,179.78c-33.594-33.601-88.068-33.601-121.67,0c-33.598,33.601-33.598,88.073,0,121.666
		c33.602,33.602,88.076,33.602,121.67,0C308.685,267.853,308.685,213.38,275.083,179.78z M251.968,278.31
		c-20.824,20.825-54.586,20.825-75.416,0c-20.826-20.824-20.826-54.594,0-75.418c20.83-20.824,54.592-20.824,75.416,0
		C272.79,223.716,272.79,257.486,251.968,278.31z"/>
</g>
<path style="fill:#51808E;" d="M282.997,298.73c-13.369,0-26.752-5.004-37.08-15.002c-0.055-0.056-0.191-0.188-0.234-0.23
	c0.488,0.475-9.055,5.685-15.852,7.926c-8.221,2.716-17.969,2.402-17.969,2.402c2.982,4.368,6.424,8.53,10.303,12.41
	c9.041,9.042,19.592,15.646,30.84,19.822C255.042,326.823,285.128,298.73,282.997,298.73z"/>
<path style="fill:#41747F;" d="M244.337,282.122c-1.275-1.339-2.398-2.762-3.502-4.201c-10.557,4.186-21.594,7.337-32.996,9.334
	c1.082,1.942,2.223,3.856,3.467,5.722c3.092,4.652,6.684,9.066,10.771,13.167l23.129-23.127
	C244.911,282.718,244.62,282.426,244.337,282.122z"/>
<path style="fill:#DD9081;" d="M153.413,179.78c-30.49,30.487-33.211,78.112-8.367,111.782
	c-7.508,7.489-20.516,20.251-20.516,20.251c-5.416-5.418-10.51-10.513-13.646-13.649c-7.936-7.933-16.498-23.043-29.154-10.39
	c-12.688,12.693,2.566,21.346,10.52,29.295c2.973,2.976,13.377,13.647,13.377,13.647c-5.551,5.547-1.58,1.576-4.777,4.783
	c-7.854,7.849-28.176,21.811-16.355,34.364l91.82-91.828c-20.57-20.841-20.504-54.402,0.238-75.144
	c20.74-20.74,54.301-20.809,75.143-0.245l23.119-23.111C241.194,146.194,186.931,146.263,153.413,179.78z"/>
<g>
</g>
<g>
</g>
<g>
</g>
<g>
</g>
<g>
</g>
<g>
</g>
<g>
</g>
<g>
</g>
<g>
</g>
<g>
</g>
<g>
</g>
<g>
</g>
<g>
</g>
<g>
</g>
<g>
</g>
</svg>
