<?xml version="1.0" encoding="iso-8859-1"?>
<!-- Generator: Adobe Illustrator 19.0.0, SVG Export Plug-In . SVG Version: 6.00 Build 0)  -->
<svg version="1.1" id="Capa_1" xmlns="http://www.w3.org/2000/svg" xmlns:xlink="http://www.w3.org/1999/xlink" x="0px" y="0px"
	 viewBox="0 0 512 512" style="enable-background:new 0 0 512 512;" xml:space="preserve">
<path style="fill:#FFCB47;" d="M326.806,0H145.544c-8.284,0-15,6.716-15,15v246.049c0,8.284,6.716,15,15,15h181.262
	c8.284,0,15-6.716,15-15V15C341.806,6.716,335.09,0,326.806,0z"/>
<path style="fill:#FFE369;" d="M248.077,0H145.544c-8.284,0-15,6.716-15,15v246.049c0,8.284,6.716,15,15,15h102.534V0H248.077z"/>
<path style="fill:#FC8774;" d="M328.155,412.558l49.103-130.597c9.585-25.493,2.416-54.256-18.013-72.269l-17.438-15.375
	L341.806,256l-70.268,5.144v-88.246c0-23.077-18.708-41.785-41.785-41.785l0,0c-23.077,0-41.785,18.708-41.785,41.785v82.413
	c-26.241,19.297-43.27,50.389-43.27,85.459c0,27.695,10.625,52.905,28.015,71.789h155.442V412.558z"/>
<path style="fill:#FCAEA1;" d="M248.077,135.36c-5.534-2.708-11.746-4.246-18.324-4.246l0,0c-23.077,0-41.785,18.708-41.785,41.785
	v82.413c-26.241,19.297-43.27,50.389-43.27,85.459c0,27.695,10.625,52.905,28.015,71.789h75.364L248.077,135.36L248.077,135.36z"/>
<path style="fill:#105C6E;" d="M326.806,512H174.61c-8.284,0-15-6.716-15-15v-80.856c0-8.284,6.716-15,15-15h152.196
	c8.284,0,15,6.716,15,15V497C341.806,505.284,335.09,512,326.806,512z"/>
<path style="fill:#26879C;" d="M248.077,401.144H174.61c-8.284,0-15,6.716-15,15V497c0,8.284,6.716,15,15,15h73.468V401.144H248.077
	z"/>
<g>
</g>
<g>
</g>
<g>
</g>
<g>
</g>
<g>
</g>
<g>
</g>
<g>
</g>
<g>
</g>
<g>
</g>
<g>
</g>
<g>
</g>
<g>
</g>
<g>
</g>
<g>
</g>
<g>
</g>
</svg>
