<svg xmlns="http://www.w3.org/2000/svg" height="512pt" version="1.1" viewBox="0 0 512 512" width="512pt">
<g id="surface1">
<path d="M 512 256 C 512 397.386719 397.386719 512 256 512 C 114.613281 512 0 397.386719 0 256 C 0 114.613281 114.613281 0 256 0 C 397.386719 0 512 114.613281 512 256 Z M 512 256 " style=" stroke:none;fill-rule:nonzero;fill:rgb(99.607843%,41.568627%,8.627451%);fill-opacity:1;" />
<path d="M 512 256 C 512 249.691406 511.761719 243.4375 511.3125 237.242188 L 419.851562 145.78125 L 158.183594 335.722656 L 132.507812 309.660156 L 57.75 311.75 L 45.851562 352.042969 L 199.554688 505.742188 C 217.714844 509.828125 236.605469 512 256 512 C 397.386719 512 512 397.386719 512 256 Z M 512 256 " style=" stroke:none;fill-rule:nonzero;fill:rgb(94.901961%,27.058824%,0%);fill-opacity:1;" />
<path d="M 453.027344 234.230469 C 453.027344 308.519531 392.804688 368.742188 318.515625 368.742188 C 244.222656 368.742188 184 308.519531 184 234.230469 C 184 159.941406 244.222656 99.714844 318.515625 99.714844 C 392.804688 99.714844 453.027344 159.941406 453.027344 234.230469 Z M 453.027344 234.230469 " style=" stroke:none;fill-rule:nonzero;fill:rgb(25.490196%,28.627451%,32.156863%);fill-opacity:1;" />
<path d="M 318.515625 99.71875 C 318.230469 99.71875 317.949219 99.726562 317.667969 99.726562 L 317.667969 368.734375 C 317.949219 368.734375 318.230469 368.746094 318.515625 368.746094 C 392.804688 368.746094 453.027344 308.519531 453.027344 234.230469 C 453.027344 159.941406 392.804688 99.71875 318.515625 99.71875 Z M 318.515625 99.71875 " style=" stroke:none;fill-rule:nonzero;fill:rgb(20%,22.352941%,25.098039%);fill-opacity:1;" />
<path d="M 227.632812 362.734375 L 187.117188 362.734375 C 169.820312 362.734375 155.746094 348.664062 155.746094 331.367188 C 155.746094 314.070312 169.820312 300 187.117188 300 L 227.632812 300 C 244.929688 300 259 314.070312 259 331.367188 C 259 348.664062 244.929688 362.734375 227.632812 362.734375 Z M 187.117188 318 C 179.746094 318 173.746094 323.996094 173.746094 331.367188 C 173.746094 338.738281 179.746094 344.734375 187.117188 344.734375 L 227.632812 344.734375 C 235.003906 344.734375 241 338.738281 241 331.367188 C 241 323.996094 235.003906 318 227.632812 318 Z M 187.117188 318 " style=" stroke:none;fill-rule:nonzero;fill:rgb(25.490196%,28.627451%,32.156863%);fill-opacity:1;" />
<path d="M 109.882812 362.734375 L 69.367188 362.734375 C 52.070312 362.734375 38 348.664062 38 331.367188 C 38 314.070312 52.070312 300 69.367188 300 L 109.882812 300 C 127.179688 300 141.253906 314.070312 141.253906 331.367188 C 141.253906 348.664062 127.179688 362.734375 109.882812 362.734375 Z M 69.367188 318 C 61.996094 318 56 323.996094 56 331.367188 C 56 338.738281 61.996094 344.734375 69.367188 344.734375 L 109.882812 344.734375 C 117.253906 344.734375 123.253906 338.738281 123.253906 331.367188 C 123.253906 323.996094 117.253906 318 109.882812 318 Z M 69.367188 318 " style=" stroke:none;fill-rule:nonzero;fill:rgb(25.490196%,28.627451%,32.156863%);fill-opacity:1;" />
<path d="M 106.632812 322.367188 L 190.367188 322.367188 L 190.367188 340.367188 L 106.632812 340.367188 Z M 106.632812 322.367188 " style=" stroke:none;fill-rule:nonzero;fill:rgb(25.490196%,28.627451%,32.156863%);fill-opacity:1;" />
<path d="M 291.117188 203.234375 L 229.933594 203.234375 L 229.933594 221.042969 L 251.621094 221.042969 L 251.621094 265.226562 L 269.429688 265.226562 L 269.429688 221.042969 L 291.117188 221.042969 Z M 291.117188 203.234375 " style=" stroke:none;fill-rule:nonzero;fill:rgb(100%,100%,100%);fill-opacity:1;" />
<path d="M 407.09375 204.039062 L 387.914062 204.039062 L 379.242188 219.140625 L 370.566406 204.039062 L 351.390625 204.039062 L 368.96875 234.632812 L 351.390625 265.226562 L 370.566406 265.226562 L 379.242188 250.128906 L 387.914062 265.226562 L 407.09375 265.226562 L 389.515625 234.632812 Z M 407.09375 204.039062 " style=" stroke:none;fill-rule:nonzero;fill:rgb(91.372549%,92.941176%,96.078431%);fill-opacity:1;" />
<path d="M 329.929688 265.226562 L 347.734375 265.226562 L 330.839844 204.039062 L 303.902344 204.039062 L 287.007812 265.226562 L 304.816406 265.226562 L 309.109375 249.675781 L 325.632812 249.675781 Z M 312.539062 237.253906 L 317.371094 219.75 L 322.203125 237.253906 Z M 312.539062 237.253906 " style=" stroke:none;fill-rule:nonzero;fill:rgb(100%,100%,100%);fill-opacity:1;" />
<path d="M 330.84375 204.039062 L 317.667969 204.039062 L 317.667969 220.816406 L 322.203125 237.25 L 317.667969 237.25 L 317.667969 249.675781 L 325.636719 249.675781 L 329.929688 265.226562 L 347.734375 265.226562 Z M 330.84375 204.039062 " style=" stroke:none;fill-rule:nonzero;fill:rgb(91.372549%,92.941176%,96.078431%);fill-opacity:1;" />
</g>
</svg>