<svg height="511pt" viewBox="-64 0 511 511.99994" width="511pt" xmlns="http://www.w3.org/2000/svg"><path d="m143 0h-29.15625l-31.011719 15h52.667969v7.5c0 12.40625-10.09375 22.5-22.5 22.5h-25.0625v15h25.0625c20.679688 0 37.5-16.820312 37.5-37.5v-15c0-4.144531-3.359375-7.5-7.5-7.5zm0 0" fill="#ff8646"/><path d="m8 0c-4.140625 0-7.5 3.355469-7.5 7.5v15c0 20.679688 16.820312 37.5 37.5 37.5h25.0625v-15h-25.0625c-12.40625 0-22.5-10.09375-22.5-22.5v-7.5h67.332031l-45.675781-15zm0 0" fill="#ffa754"/><path d="m105.5 185c-12.40625 0-22.5-10.09375-22.5-22.5 0-4.144531-3.359375-7.5-7.5-7.5s-7.5 3.355469-7.5 7.5c0 20.679688 16.820312 37.5 37.5 37.5h119.996094v-15zm0 0" fill="#ccc"/><path d="m375.5 95c-4.140625 0-7.5 3.355469-7.5 7.5 0 45.488281-37.007812 82.5-82.5 82.5h-60.003906v15h60.003906c53.761719 0 97.5-43.738281 97.5-97.5 0-4.144531-3.359375-7.5-7.5-7.5zm0 0" fill="#b3b3b3"/><path d="m188 292.5v196.59375l-24.871094 8.289062c-3.929687 1.308594-6.050781 5.554688-4.742187 9.484376 1.308593 3.933593 5.558593 6.054687 9.484375 4.746093l30-10c3.0625-1.019531 5.128906-3.886719 5.128906-7.117187v-201.996094zm0 0" fill="#4f4f4f"/><path d="m263 292.5v196.59375l24.871094 8.289062c3.929687 1.308594 6.050781 5.554688 4.742187 9.484376-1.308593 3.933593-5.558593 6.054687-9.484375 4.746093l-30-10c-3.0625-1.019531-5.128906-3.886719-5.128906-7.117187v-201.996094zm0 0" fill="#353535"/><path d="m68 72.5h15v60h-15zm0 0" fill="#ffa754"/><path d="m83.167969 0-7.667969 102.5c15.421875 0 28.121094-11.640625 29.804688-26.609375l8.539062-75.890625zm0 0" fill="#ffa754"/><path d="m37.15625 0 8.539062 75.890625c1.683594 14.96875 14.382813 26.609375 29.804688 26.609375 3.082031 0 5.625-11.640625 5.960938-26.609375l1.707031-75.890625zm0 0" fill="#ffcb63"/><path d="m225.5 262.5v75c24.851562 0 45-20.148438 45-45zm0 0" fill="#353535"/><path d="m240.5 292.5-15-30-45 30c0 24.851562 20.148438 45 45 45 8.285156 0 15-20.148438 15-45zm0 0" fill="#4f4f4f"/><path d="m233 172.5-22.5 30 15 40h30v-70zm0 0" fill="#ebebeb"/><path d="m218 172.5h-22.5l-10 70h40zm0 0" fill="#fff"/><path d="m218 172.5h15v90h-15zm0 0" fill="#353535"/><path d="m265.5 172.53125-10-.03125c0 25.644531-12.070312 58.015625-30 70h-14.183594l29.183594 50.03125h30v-35.03125c8.03125-6.03125 13.609375-15.140625 15-25.570312v-39.398438c0-11.050781-8.949219-20-20-20zm0 0" fill="#b3b3b3"/><path d="m255.5 172.5c0 25.644531-12.070312 48.019531-30 60-17.929688-11.980469-30-34.355469-30-60l-10 .03125c-11.050781 0-20 8.949219-20 20v39.398438c1.390625 10.429687 6.96875 19.542968 15 25.570312v35.03125h60v-35.03125c8.03125-6.027344 13.609375-15.140625 15-25.570312zm0 0" fill="#ccc"/><path d="m225.5 52.5v90c24.851562 0 45-20.148438 45-45s-20.148438-45-45-45zm0 0" fill="#a45e43"/><path d="m240.5 97.5c0-24.851562-6.714844-45-15-45-24.851562 0-45 20.148438-45 45s20.148438 45 45 45c8.285156 0 15-20.148438 15-45zm0 0" fill="#c27749"/><path d="m105.5 140h-60c-4.140625 0-7.5-3.355469-7.5-7.5s3.359375-7.5 7.5-7.5h60c4.140625 0 7.5 3.355469 7.5 7.5s-3.359375 7.5-7.5 7.5zm0 0" fill="#ffa754"/></svg>